<?xml version="1.0" encoding="utf-8"?>
<!-- Generator: Adobe Illustrator 19.0.0, SVG Export Plug-In . SVG Version: 6.00 Build 0)  -->
<svg version="1.1" id="Layer_1" xmlns="http://www.w3.org/2000/svg" xmlns:xlink="http://www.w3.org/1999/xlink" x="0px" y="0px"
	 viewBox="0 0 145.9 27.8" style="enable-background:new 0 0 145.9 27.8;" xml:space="preserve">
<style type="text/css">
	.st0{fill:#231F20;}
	.st1{fill:#E03A3E;}
</style>
<g id="XMLID_5_">
	<path id="XMLID_28_" class="st0" d="M55.4,15.5H51l0,0.1c0.4,0.2,1.3,0.5,1.5,0.7c0.2,0.3,0.2,0.7,0.2,0.9v6.1
		c0,2.5-1.9,3.9-3.9,3.7c-1.9-0.3-3.2-1.3-3.2-3.9v-6c0-0.4,0-0.6,0.2-0.9c0.2-0.3,1.1-0.4,1.5-0.6l0-0.1h-4.7l0,0.1
		c0.4,0.1,1.3,0.4,1.4,0.6c0.2,0.3,0.2,0.7,0.2,0.9V23c0,3.4,2.2,4.8,4.6,4.8c2.5,0,4.8-1.2,4.8-5v-5.1c0-0.2,0-1.2,0.2-1.5
		c0.2-0.3,1-0.5,1.5-0.7L55.4,15.5z"/>
	<path id="XMLID_27_" class="st0" d="M89.9,15.5h-4l0,0.1c0.4,0.1,1.2,0.5,1.3,0.7c0,0.1,0,0.6-0.2,0.9l-3,8.2l-3.3-8.2
		c-0.1-0.3-0.3-0.8-0.2-1c0.1-0.3,0.9-0.6,1.2-0.7l0-0.1h-4.3l0,0.1c0.5,0.2,1.2,0.5,1.4,0.8c0.1,0.3,0.2,0.5,0.3,0.8
		c0.4,1,3.1,7.4,3.8,9.5c0.1,0.4,0.3,0.6,0.4,1h0.8c0.1-0.5,0.2-0.8,0.4-1.3c0.3-0.9,3-8.6,3.4-9.4c0.1-0.3,0.2-0.5,0.4-0.8
		c0.2-0.3,1.1-0.5,1.5-0.7L89.9,15.5z"/>
	<path id="XMLID_26_" class="st0" d="M98.8,25.3l-0.2,0c-0.2,0.5-0.4,1.3-0.7,1.4c-0.2,0.1-0.4,0-0.7,0h-2.7c-0.3,0-0.5,0-0.8-0.1
		c-0.2-0.1-0.3-0.6-0.3-0.8v-4h2.4c0.4,0,0.6,0,0.9,0.2c0.3,0.2,0.4,0.8,0.6,1.2l0.1,0v-3.5l-0.1,0l-0.2,0.7
		c-0.1,0.2-0.2,0.3-0.3,0.4C96.6,21,96.2,21,95.8,21h-2.3v-3.9c0-0.3,0-0.6,0.1-0.7c0.2-0.2,0.5-0.1,0.8-0.1h2c0.3,0,0.7,0,1,0.2
		c0.3,0.2,0.5,0.9,0.7,1.3l0.1,0l0-2.3h-7.8l0,0.1c0.4,0.1,1.4,0.4,1.5,0.6c0.2,0.3,0.2,0.5,0.2,0.9v8.8c0,0.3,0,0.7-0.2,0.9
		c-0.2,0.2-1.1,0.5-1.5,0.6l0,0.1h8.3L98.8,25.3z"/>
	<path id="XMLID_23_" class="st0" d="M111.5,27.7l-0.4-0.2c-0.9-0.4-1-0.6-1.6-1.1c-0.9-0.8-1.4-1.4-2.2-2.4l-1.8-2l0.3-0.1
		c1-0.3,2.9-0.9,2.9-3.1c0-2.2-1.7-3.3-3.2-3.4c-1-0.1-1.6,0-2.5,0h-2.6l0,0.1c0.5,0.2,1.3,0.4,1.5,0.7c0.2,0.2,0.2,0.5,0.2,0.8v8.8
		c0,0.3,0,0.7-0.2,0.9c-0.1,0.2-1.1,0.5-1.5,0.6l0,0.1h4.8l0-0.1c-0.5-0.2-1.3-0.3-1.5-0.6c-0.2-0.3-0.2-0.5-0.2-0.9v-3.9h0.4
		l2.4,2.5c1.1,1.2,2.3,2.6,3,2.9c0.6,0.2,1.3,0.4,1.6,0.3L111.5,27.7z M107.4,18.6c0.1,1.7-1.3,2.8-3.1,2.8l-0.8,0V17
		c0-0.3,0-0.5,0.2-0.7c0.2-0.1,0.9-0.2,1.4-0.1C106.1,16.2,107.3,17.2,107.4,18.6z"/>
	<path id="XMLID_22_" class="st0" d="M118.2,24.4c0-2-1.8-2.8-3.6-3.7c-0.7-0.3-2.2-1-2.2-2.3c0-1.3,1.1-2.4,2.5-2.3
		c1,0,1.6,0.2,1.9,1l0.6,1.4l0.1,0l0-2.9l-0.3-0.1c-0.5-0.1-1.3-0.3-2.2-0.3c-1.9,0-3.8,1.3-3.7,3.4c0.1,2,1.3,2.5,3,3.4
		c1.3,0.7,2.6,1.2,2.7,2.6c0.1,1.4-1.3,2.4-2.8,2.2c-0.8-0.1-1.8-0.3-2.1-1.3l-0.4-1.1l-0.1,0l0.1,2.7l0.7,0.2
		c0.4,0.1,1.2,0.3,2,0.3C116.6,27.7,118.2,26.6,118.2,24.4z"/>
	<path id="XMLID_21_" class="st0" d="M134.5,18.4v-3l-9.2,0l0,2.9l0.2,0c0.2-0.6,0.4-1.7,0.7-1.9c0.1-0.1,0.3-0.1,0.4-0.1l2.5,0v9.5
		c0,0.3,0.1,0.7-0.2,0.9c-0.2,0.2-1.1,0.5-1.5,0.6l0,0.1h4.8l0-0.1c-0.5-0.2-1.3-0.3-1.5-0.6c-0.2-0.3-0.2-0.5-0.2-0.9v-9.6h2.2
		c0.3,0,0.5,0,0.8,0.1c0.4,0.1,0.7,1.5,0.9,2L134.5,18.4z"/>
	<path id="XMLID_20_" class="st0" d="M70.3,15.5l0,0.1c-0.4,0.2-1,0.4-1.2,0.6c-0.2,0.2-0.2,2.1-0.2,2.1v9.3h-0.8
		c-1.7-1.9-1.9-2.2-2.1-2.4c-0.1-0.1-0.3-0.3-0.7-0.7c-2.6-2.7-5.2-5.9-6.2-6.9v7.1c0,0.4-0.1,1.6,0.2,2.1c0.1,0.3,0.8,0.5,1.2,0.6
		l0,0.1h-3.7l0-0.1c0.5-0.2,1-0.4,1.2-0.7c0.1-0.3,0.1-1.4,0.1-2.1v-7.9c0-0.2-0.1-0.4-0.2-0.6c-0.2-0.3-1.1-0.4-1.5-0.6l0-0.1
		l2.7,0c0.2,0.3,0.5,0.7,1.1,1.3c2.8,2.9,7,7.9,7.7,8.5v-6.9c0-0.8,0-1.8-0.1-2.1c-0.2-0.3-0.8-0.5-1.2-0.7l0-0.1H70.3z"/>
	<g id="XMLID_18_">
		<path id="XMLID_19_" class="st0" d="M76.9,27.6l0-0.1c-0.5-0.2-1.3-0.3-1.5-0.6c-0.2-0.3-0.2-0.5-0.2-0.9v-8.9
			c0-0.4,0-0.6,0.2-0.9c0.2-0.3,1.1-0.4,1.5-0.6l0-0.1H72l0,0.1c0.4,0.1,1.4,0.4,1.5,0.6c0.2,0.3,0.2,0.7,0.2,0.9v8.8
			c0,0.3,0.1,0.7-0.2,0.9c-0.2,0.2-1.1,0.5-1.5,0.6l0,0.1H76.9z"/>
	</g>
	<g id="XMLID_16_">
		<path id="XMLID_17_" class="st0" d="M138.7,17.1l1.9,3.5l1.9-3.3c0.2-0.4,0.5-0.9,0.4-1c-0.1-0.3-0.5-0.4-1.3-0.7l0-0.1h4.1l0,0.1
			c-0.5,0.2-1.1,0.3-1.6,0.7c-0.2,0.2-0.4,0.6-0.6,0.9l-2.4,4.1l0,4.6c0,0.4,0,0.6,0.2,0.9c0.2,0.3,1.2,0.4,1.6,0.6l0,0.1h-5l0-0.1
			c0.4-0.1,1.4-0.4,1.6-0.6c0.2-0.3,0.2-0.7,0.2-0.9v-4.1l-2.5-4.6c-0.2-0.4-0.4-0.7-0.6-0.9c-0.5-0.5-1.1-0.5-1.6-0.7l0-0.1h4.6
			l0,0.1c-0.8,0.3-1.2,0.4-1.3,0.7C138.4,16.4,138.6,16.7,138.7,17.1z"/>
	</g>
	<g id="XMLID_14_">
		<path id="XMLID_15_" class="st0" d="M124.2,27.6l0-0.1c-0.5-0.2-1.3-0.3-1.5-0.6c-0.2-0.3-0.2-0.5-0.2-0.9v-8.9
			c0-0.4,0-0.6,0.2-0.9c0.2-0.3,1.1-0.4,1.5-0.6l0-0.1h-4.8l0,0.1c0.4,0.1,1.4,0.4,1.5,0.6c0.2,0.3,0.2,0.7,0.2,0.9v8.8
			c0,0.3,0.1,0.7-0.2,0.9c-0.2,0.2-1.1,0.5-1.5,0.6l0,0.1H124.2z"/>
	</g>
	<g id="XMLID_6_">
		<path id="XMLID_13_" class="st0" d="M66.7,12.3l0-0.1c-0.5-0.2-1.3-0.3-1.5-0.6c-0.2-0.3-0.2-0.5-0.2-0.9v-9c0-0.4,0-0.6,0.2-0.9
			c0.2-0.3,1.1-0.4,1.5-0.6l0-0.1h-4.9l0,0.1c0.4,0.1,1.4,0.4,1.5,0.6c0.2,0.3,0.2,0.7,0.2,1v8.9c0,0.3,0.1,0.7-0.2,1
			c-0.2,0.2-1.1,0.5-1.5,0.6l0,0.1H66.7z"/>
		<path id="XMLID_12_" class="st0" d="M45,1.8c0-0.3,0-0.7-0.2-1c-0.2-0.2-1.1-0.5-1.5-0.6l0-0.1h1.7l1,0c0.1,0.3,0.3,1,0.5,1.4
			c1.1,2.3,4.3,7.7,4.8,8.4c0.8-1.4,2.6-4.8,4.3-7.9c0.4-0.7,0.6-1.2,0.9-2h2.8l0,0.1c-0.5,0.2-1.3,0.3-1.5,0.6
			c-0.2,0.2-0.2,0.5-0.2,0.8c0,0.3,0,0.6,0.1,0.9c0.3,3.1,0.7,7.9,0.7,7.9c0,0.4,0.1,0.8,0.2,1c0.1,0.3,0.9,0.5,1.4,0.7l0,0.1h-4.4
			l0-0.1c0.4-0.1,1.1-0.4,1.3-0.6c0.3-0.6,0.2-1,0.1-1.4l-0.7-7.5c-0.7,1.2-3,5.4-4.1,7.5c-0.4,0.8-1,2-1.1,2.2
			c-0.1-0.2-0.6-1.1-0.9-1.7c-2.4-4.5-4.1-7.1-4.4-7.7l-0.5,6.3c0,0.4-0.2,1.6,0.1,2.1c0.2,0.3,0.8,0.4,1.2,0.6l0,0.1H43l0-0.1
			c0.5-0.2,1.1-0.4,1.3-0.7c0.1-0.3,0.2-1.2,0.2-2C44.8,7.2,44.9,4,45,2.7C45,2.4,45,2.1,45,1.8z"/>
		<path id="XMLID_11_" class="st0" d="M82.7,1.8c0-0.3,0-0.7-0.2-1c-0.2-0.2-1.1-0.5-1.5-0.6l0-0.1h1.7l1,0c0.1,0.3,0.3,1,0.5,1.4
			c1.1,2.3,4.3,7.7,4.8,8.4c0.8-1.4,2.6-4.8,4.3-7.9c0.4-0.7,0.6-1.2,0.9-2H97l0,0.1c-0.5,0.2-1.3,0.3-1.5,0.6
			c-0.2,0.2-0.2,0.5-0.2,0.8c0,0.3,0,0.6,0.1,0.9c0.3,3.1,0.7,7.9,0.7,7.9c0,0.4,0.1,0.8,0.2,1c0.1,0.3,0.9,0.5,1.4,0.7l0,0.1h-4.4
			l0-0.1c0.4-0.1,1.1-0.4,1.3-0.6c0.3-0.6,0.2-1,0.1-1.4L94,2.7c-0.7,1.2-3,5.4-4.1,7.5c-0.4,0.8-1,2-1.1,2.2
			c-0.1-0.2-0.6-1.1-0.9-1.7c-2.4-4.5-4.1-7.1-4.4-7.7L83,9.4c0,0.4-0.2,1.6,0.1,2.1c0.2,0.3,0.8,0.4,1.2,0.6l0,0.1h-3.7l0-0.1
			c0.5-0.2,1.1-0.4,1.3-0.7c0.1-0.3,0.2-1.2,0.2-2c0.3-2.3,0.4-5.5,0.5-6.8C82.6,2.4,82.6,2.1,82.7,1.8z"/>
		<path id="XMLID_10_" class="st0" d="M104.3,12.3l0-0.1c-0.5-0.2-1.3-0.3-1.5-0.6c-0.2-0.3-0.2-0.5-0.2-0.9v-9c0-0.4,0-0.6,0.2-0.9
			c0.2-0.3,1.1-0.4,1.5-0.6l0-0.1h-4.9l0,0.1c0.4,0.1,1.4,0.4,1.5,0.6c0.2,0.3,0.2,0.7,0.2,1v8.9c0,0.3,0.1,0.7-0.2,1
			c-0.2,0.2-1.1,0.5-1.5,0.6l0,0.1H104.3z"/>
		<path id="XMLID_7_" class="st0" d="M75,6.5h-3.4l1.7-4.3L75,6.5z M79.8,12.3l0-0.1c-0.5-0.2-1.2-0.4-1.4-0.7
			c-0.1-0.3-0.3-0.5-0.4-0.8c-0.4-1-2.9-7.5-3.6-9.7c-0.1-0.3-0.1-0.5-0.2-0.9h-1.1c-0.1,0.4-0.2,0.7-0.3,1.1
			c-0.3,0.9-2.2,6-3.7,9.5c-0.1,0.3-0.2,0.5-0.3,0.8c-0.2,0.3-0.9,0.5-1.4,0.7l0,0.1l3.8,0l0-0.1c-0.4-0.2-1.1-0.4-1.2-0.6
			c0-0.1,0.1-0.7,0.2-1.1l1.2-3.1h4.1l1.1,3.1c0.1,0.3,0.3,0.8,0.2,1c-0.1,0.3-0.8,0.5-1.2,0.7l0,0.1H79.8z"/>
	</g>
</g>
<g id="XMLID_2_">
	<path id="XMLID_4_" class="st0" d="M0,0l4.2,6.9H5v14H4.2L0,27.8h18l-4.2-6.9h-0.7v-4.5c1.8,3.1,5.3,9,5.3,9l1.7-2.8
		c0,0,1.8-3.1,3.7-6.2v4.5h-0.7l-4.2,6.9h18l-4.2-6.9H32v-14h0.8L37,0H24.7l-6.2,10.4L12.3,0H0z"/>
	<polygon id="XMLID_3_" class="st1" points="30.1,22.8 30.1,5 31.7,5 33.6,1.9 25.7,1.9 18.5,14.2 11.2,1.9 3.4,1.9 5.2,5 6.9,5 
		6.9,22.8 5.3,22.8 3.4,25.9 14.7,25.9 12.8,22.8 11.2,22.8 11.2,9.4 18.5,21.6 18.5,21.6 18.5,21.6 25.7,9.4 25.7,22.8 24.2,22.8 
		22.3,25.9 33.5,25.9 31.7,22.8 	"/>
</g>
</svg>
